<?xml version="1.0" encoding="UTF-8"?>
<svg width="102px" height="35px" viewBox="0 0 102 35" version="1.1" xmlns="http://www.w3.org/2000/svg" xmlns:xlink="http://www.w3.org/1999/xlink">
    <title>Page 1</title>
    <defs>
        <linearGradient x1="100%" y1="50%" x2="0%" y2="50%" id="linearGradient-1">
            <stop stop-color="#FFFFFF" offset="0%"></stop>
            <stop stop-color="#FFFFFF" stop-opacity="0" offset="100%"></stop>
        </linearGradient>
    </defs>
    <g id="Page-1" stroke="none" stroke-width="1" fill="none" fill-rule="evenodd">
        <path d="M0,11.6 C0,11.6 2,24.4 5,24.4 C7,24.4 7,34 10,34 C13,34 13,34 15,34 C18,34 18,12.4 21,12.4 C23,12.4 23,14 26,14 C28,14 28,23.6 31,23.6 C34,23.6 34,12.4 36,12.4 C39,12.4 39,27.6 42,27.6 C44,27.6 44,25.2 47,25.2 C50,25.2 50,11.6 52,11.6 C55,11.6 55,21.2 57,21.2 C60,21.2 60,25.2 63,25.2 C65,25.2 65,7.6 68,7.6 C71,7.6 71,3.6 73,3.6 C76,3.6 76,30.8 78,30.8 C81,30.8 81,22 84,22 C86,22 86,7.6 89,7.6 C92,7.6 92,6.8 94,6.8 C97,6.8 99,2 99,2" id="Line" stroke="url(#linearGradient-1)" stroke-linecap="round" stroke-linejoin="round"></path>
        <path d="M99.9406123,0.23499334 C98.9049019,-0.31696035 97.6441663,0.02581317 97.1246804,1.00059943 C96.6051946,1.97538569 97.0236773,3.21305296 98.0593877,3.76500666 C99.0950981,4.31696035 100.355834,3.97418683 100.87532,2.99940057 C101.394805,2.02461431 100.976323,0.78694704 99.9406123,0.23499334 Z" id="Dot" fill="#FFFFFF" fill-rule="nonzero"></path>
    </g>
</svg>
